<svg width="317" height="317" viewBox="0 0 317 317" fill="none" xmlns="http://www.w3.org/2000/svg">
<rect width="317" height="317" rx="64" fill="black"/>
<g filter="url(#filter0_d_1_20)">
<path d="M159 207V103" stroke="white" stroke-width="16" stroke-linecap="round" stroke-linejoin="round"/>
<path d="M183 167C176.078 164.977 169.999 160.765 165.672 154.996C161.345 149.227 159.004 142.211 159 135C158.996 142.211 156.655 149.227 152.328 154.996C148.001 160.765 141.922 164.977 135 167" stroke="white" stroke-width="16" stroke-linecap="round" stroke-linejoin="round"/>
<path d="M203.784 115C205.625 111.812 206.708 108.243 206.949 104.57C207.189 100.896 206.582 97.2164 205.173 93.8152C203.765 90.414 201.592 87.3824 198.825 84.955C196.057 82.5277 192.768 80.7696 189.212 79.8168C185.656 78.8639 181.928 78.7419 178.318 79.4602C174.707 80.1784 171.31 81.7176 168.389 83.9588C165.469 86.1999 163.103 89.0829 161.475 92.3847C159.847 95.6865 159 99.3186 159 103C159 99.3186 158.153 95.6865 156.525 92.3847C154.897 89.0829 152.531 86.1999 149.611 83.9588C146.69 81.7176 143.293 80.1784 139.682 79.4602C136.072 78.7419 132.344 78.8639 128.788 79.8168C125.232 80.7696 121.943 82.5277 119.175 84.955C116.408 87.3824 114.235 90.414 112.827 93.8152C111.418 97.2164 110.811 100.896 111.051 104.57C111.292 108.243 112.375 111.812 114.216 115" stroke="white" stroke-width="16" stroke-linecap="round" stroke-linejoin="round"/>
<path d="M206.976 104C211.678 105.209 216.044 107.472 219.742 110.618C223.44 113.765 226.374 117.711 228.321 122.159C230.268 126.607 231.178 131.439 230.981 136.291C230.784 141.142 229.485 145.885 227.184 150.16" stroke="white" stroke-width="16" stroke-linecap="round" stroke-linejoin="round"/>
<path d="M207 207C214.044 207 220.891 204.675 226.479 200.387C232.068 196.099 236.085 190.086 237.908 183.282C239.731 176.478 239.259 169.263 236.563 162.755C233.868 156.247 229.1 150.81 223 147.288" stroke="white" stroke-width="16" stroke-linecap="round" stroke-linejoin="round"/>
<path d="M222.736 202.864C223.297 207.202 222.962 211.609 221.753 215.812C220.544 220.016 218.486 223.927 215.706 227.304C212.926 230.681 209.483 233.452 205.59 235.446C201.697 237.44 197.437 238.615 193.072 238.899C188.707 239.182 184.331 238.567 180.213 237.093C176.095 235.618 172.323 233.315 169.13 230.326C165.937 227.337 163.391 223.725 161.648 219.713C159.906 215.701 159.005 211.374 159 207C158.995 211.374 158.094 215.701 156.352 219.713C154.609 223.725 152.063 227.337 148.87 230.326C145.677 233.315 141.905 235.618 137.787 237.093C133.669 238.567 129.293 239.182 124.928 238.899C120.563 238.615 116.303 237.44 112.41 235.446C108.517 233.452 105.074 230.681 102.294 227.304C99.5144 223.927 97.4563 220.016 96.2471 215.812C95.0379 211.609 94.7033 207.202 95.264 202.864" stroke="white" stroke-width="16" stroke-linecap="round" stroke-linejoin="round"/>
<path d="M111 207C103.956 207 97.1089 204.675 91.5205 200.387C85.9322 196.099 81.915 190.086 80.0918 183.282C78.2687 176.478 78.7415 169.263 81.4369 162.755C84.1324 156.247 88.8999 150.81 95 147.288" stroke="white" stroke-width="16" stroke-linecap="round" stroke-linejoin="round"/>
<path d="M111.024 104C106.322 105.209 101.956 107.472 98.2578 110.618C94.5597 113.765 91.6259 117.711 89.6787 122.159C87.7316 126.607 86.8221 131.439 87.0191 136.291C87.2161 141.142 88.5145 145.885 90.816 150.16" stroke="white" stroke-width="16" stroke-linecap="round" stroke-linejoin="round"/>
</g>
<defs>
<filter id="filter0_d_1_20" x="59" y="63" width="200" height="200" filterUnits="userSpaceOnUse" color-interpolation-filters="sRGB">
<feFlood flood-opacity="0" result="BackgroundImageFix"/>
<feColorMatrix in="SourceAlpha" type="matrix" values="0 0 0 0 0 0 0 0 0 0 0 0 0 0 0 0 0 0 127 0" result="hardAlpha"/>
<feOffset dy="4"/>
<feGaussianBlur stdDeviation="2"/>
<feComposite in2="hardAlpha" operator="out"/>
<feColorMatrix type="matrix" values="0 0 0 0 0 0 0 0 0 0 0 0 0 0 0 0 0 0 0.25 0"/>
<feBlend mode="normal" in2="BackgroundImageFix" result="effect1_dropShadow_1_20"/>
<feBlend mode="normal" in="SourceGraphic" in2="effect1_dropShadow_1_20" result="shape"/>
</filter>
</defs>
</svg>
